<?xml version="1.0" standalone="no"?>
<!DOCTYPE svg PUBLIC "-//W3C//DTD SVG 20010904//EN"
 "http://www.w3.org/TR/2001/REC-SVG-20010904/DTD/svg10.dtd">
<svg version="1.0" xmlns="http://www.w3.org/2000/svg"
 width="2809.000000pt" height="1126.000000pt" viewBox="0 0 2809.000000 1126.000000"
 preserveAspectRatio="xMidYMid meet">

<g transform="translate(0.000000,1126.000000) scale(0.100000,-0.100000)"
fill="#000000" stroke="none">
<path d="M5204 10272 c3 -5 -8 -6 -25 -4 -16 2 -63 1 -104 -3 -65 -6 -75 -9
-75 -26 0 -21 -5 -23 -72 -19 -71 3 -88 -5 -88 -45 l0 -34 -100 -3 c-97 -3
-99 -3 -94 19 10 36 -26 47 -105 32 -65 -13 -66 -14 -26 -19 27 -3 41 -10 43
-22 4 -19 -24 -26 -30 -7 -2 6 -34 13 -72 16 -54 4 -67 2 -64 -9 4 -9 23 -13
67 -12 l61 1 0 -39 c0 -31 -3 -38 -20 -38 -13 0 -20 7 -20 20 0 17 -7 20 -40
20 -33 0 -40 -3 -40 -20 0 -13 -7 -20 -20 -20 -17 0 -20 -7 -20 -40 l0 -40
-40 0 c-33 0 -40 -3 -40 -20 0 -11 -4 -20 -10 -20 -5 0 -10 9 -10 20 0 13 -7
20 -20 20 -14 0 -20 7 -20 23 0 26 32 62 44 50 4 -5 6 -1 4 7 -2 11 8 16 43
18 45 3 47 4 51 38 3 28 1 34 -11 29 -9 -4 -38 -11 -66 -17 -58 -12 -116 -39
-97 -45 19 -7 14 -33 -7 -33 -13 0 -18 6 -16 24 l3 24 -60 -19 c-78 -23 -83
-30 -20 -24 29 3 53 1 57 -5 4 -6 -17 -10 -59 -10 -39 0 -66 -4 -66 -10 0 -7
-16 -9 -42 -5 -24 3 -38 2 -31 -2 7 -5 11 -19 10 -31 -1 -19 -6 -22 -47 -21
-25 1 -50 6 -56 10 -6 5 -41 -2 -84 -18 -60 -22 -69 -28 -51 -35 11 -4 21 -14
21 -23 0 -8 4 -15 8 -15 5 0 9 -7 9 -15 0 -8 -9 -15 -19 -15 -10 0 -18 -7 -18
-16 0 -9 -9 -18 -20 -21 -11 -3 -20 -14 -20 -24 0 -12 -7 -19 -20 -19 -13 0
-20 -7 -20 -20 0 -13 7 -20 20 -20 11 0 20 -4 20 -10 0 -15 70 -12 86 4 8 8
14 31 14 50 0 20 5 36 10 36 6 0 10 -9 10 -20 0 -13 7 -20 20 -20 18 0 20 -7
20 -80 l0 -80 -30 0 c-23 0 -30 4 -30 20 0 11 -4 20 -10 20 -5 0 -10 9 -10 20
0 17 -7 20 -40 20 -33 0 -40 -3 -40 -20 0 -13 -7 -20 -20 -20 -17 0 -20 -7
-20 -40 0 -33 3 -40 20 -40 11 0 20 -4 20 -9 0 -5 9 -11 20 -14 14 -3 20 -14
20 -31 0 -19 -5 -26 -20 -26 -18 0 -20 -7 -20 -80 l0 -80 -110 0 -110 0 0 30
c0 27 3 30 30 30 17 0 30 5 30 10 0 6 9 10 20 10 13 0 20 7 20 20 0 13 7 20
20 20 13 0 20 7 20 20 0 11 5 20 10 20 6 0 10 18 10 40 0 22 -4 40 -10 40 -5
0 -10 9 -10 20 0 17 -7 20 -40 20 l-40 0 0 -40 0 -40 -40 0 c-33 0 -40 -3 -40
-20 0 -13 -7 -20 -19 -20 -10 0 -21 -9 -24 -20 -3 -11 -12 -20 -21 -20 -9 0
-16 -8 -16 -20 0 -13 -7 -20 -20 -20 -17 0 -20 -7 -20 -39 0 -30 4 -40 20 -44
18 -5 20 -14 20 -81 l0 -76 -30 0 c-28 0 -30 2 -30 40 0 22 -4 40 -10 40 -5 0
-10 9 -10 20 0 17 -7 20 -40 20 -33 0 -40 -3 -40 -20 0 -13 -7 -20 -20 -20
-17 0 -20 -7 -20 -40 l0 -40 -60 0 -60 0 0 -40 c0 -33 -3 -40 -20 -40 -13 0
-20 -7 -20 -20 0 -13 -7 -20 -20 -20 -13 0 -20 -7 -20 -20 0 -13 -7 -20 -19
-20 -10 0 -21 -9 -24 -20 -3 -11 -12 -20 -21 -20 -12 0 -16 -10 -16 -40 l0
-40 -40 0 c-33 0 -40 -3 -40 -20 0 -13 -7 -20 -19 -20 -10 0 -21 -9 -24 -20
-3 -11 -12 -20 -21 -20 -9 0 -16 -8 -16 -20 0 -13 -7 -20 -20 -20 -17 0 -20
-7 -20 -39 0 -30 4 -40 20 -44 18 -5 20 -14 20 -81 l0 -76 -30 0 -30 0 0 60 0
60 -50 0 c-43 0 -50 -3 -50 -20 0 -13 -7 -20 -20 -20 -17 0 -20 -7 -20 -39 0
-30 4 -40 20 -44 17 -4 20 -14 20 -61 0 -49 -2 -56 -20 -56 -13 0 -20 -7 -20
-20 0 -11 -4 -20 -10 -20 -6 0 -10 27 -10 60 l0 60 -50 0 c-43 0 -50 -3 -50
-20 0 -13 -7 -20 -20 -20 -17 0 -20 -7 -20 -39 0 -30 4 -40 20 -44 18 -5 20
-14 20 -81 l0 -76 -30 0 c-28 0 -30 2 -30 40 0 22 -4 40 -10 40 -5 0 -10 9
-10 20 0 17 -7 20 -40 20 -33 0 -40 -3 -40 -20 0 -13 -7 -20 -20 -20 -17 0
-20 -7 -20 -39 0 -30 4 -40 20 -44 18 -5 20 -14 20 -81 l0 -76 -30 0 c-28 0
-30 2 -30 40 0 22 -4 40 -10 40 -5 0 -10 9 -10 20 0 17 -7 20 -40 20 -33 0
-40 -3 -40 -20 0 -13 -7 -20 -20 -20 -17 0 -20 -7 -20 -39 0 -30 4 -40 20 -44
18 -5 20 -14 20 -81 0 -69 2 -76 20 -76 13 0 20 -7 20 -20 0 -13 -7 -20 -20
-20 -17 0 -20 -7 -20 -40 l0 -40 -40 0 c-33 0 -40 -3 -40 -20 0 -13 -7 -20
-20 -20 -12 0 -20 -7 -20 -16 0 -9 -9 -18 -20 -21 -11 -3 -20 -14 -20 -24 0
-12 -7 -19 -19 -19 -10 0 -21 -9 -24 -20 -3 -11 -12 -20 -21 -20 -9 0 -16 -8
-16 -20 0 -13 -7 -20 -19 -20 -10 0 -21 -9 -24 -20 -3 -11 -12 -20 -21 -20 -9
0 -16 -8 -16 -20 0 -13 -7 -20 -20 -20 -18 0 -20 -7 -20 -60 0 -53 -2 -60 -20
-60 -13 0 -20 -7 -20 -20 0 -13 -7 -20 -20 -20 -17 0 -20 -7 -20 -40 0 -33 -3
-40 -20 -40 -13 0 -20 -7 -20 -20 0 -16 -7 -20 -30 -20 -23 0 -30 4 -30 20 0
11 -4 20 -10 20 -5 0 -10 18 -10 40 0 22 -4 40 -10 40 -5 0 -10 9 -10 20 0 11
5 20 10 20 6 0 10 -9 10 -20 0 -17 7 -20 40 -20 22 0 40 5 40 10 0 6 9 10 20
10 11 0 20 5 20 10 0 6 -9 10 -20 10 -13 0 -20 7 -20 20 0 16 -7 20 -30 20
-27 0 -30 3 -30 30 0 27 3 30 30 30 17 0 30 5 30 10 0 6 9 10 20 10 13 0 20 7
20 20 0 13 7 20 20 20 13 0 20 7 20 20 0 11 5 20 10 20 6 0 10 14 10 30 0 27
3 30 30 30 17 0 30 5 30 10 0 6 9 10 20 10 13 0 20 7 20 20 0 13 7 20 20 20
13 0 20 7 20 20 0 11 5 20 10 20 6 0 10 14 10 30 0 27 3 30 30 30 17 0 30 5
30 10 0 6 9 10 20 10 13 0 20 7 20 20 0 13 7 20 20 20 13 0 20 7 20 20 0 11 5
20 10 20 6 0 10 18 10 40 0 22 -4 40 -10 40 -5 0 -10 9 -10 20 0 17 -7 20 -40
20 -33 0 -40 -3 -40 -20 0 -13 -7 -20 -20 -20 -12 0 -20 -7 -20 -16 0 -9 -9
-18 -20 -21 -11 -3 -20 -14 -20 -24 0 -12 -7 -19 -20 -19 -12 0 -20 -7 -20
-16 0 -9 -9 -18 -20 -21 -11 -3 -20 -14 -20 -24 0 -12 -7 -19 -20 -19 -12 0
-20 -7 -20 -16 0 -9 -9 -18 -20 -21 -11 -3 -20 -14 -20 -24 0 -12 -7 -19 -20
-19 -12 0 -20 -7 -20 -16 0 -9 -9 -18 -20 -21 -11 -3 -20 -14 -20 -24 0 -12
-7 -19 -19 -19 -10 0 -21 -9 -24 -20 -3 -11 -12 -20 -21 -20 -9 0 -16 -8 -16
-20 0 -13 -7 -20 -19 -20 -10 0 -21 -9 -24 -20 -3 -11 -12 -20 -21 -20 -9 0
-16 -8 -16 -20 0 -13 -7 -20 -20 -20 -17 0 -20 -7 -20 -39 0 -30 4 -40 20 -44
18 -5 20 -14 20 -81 l0 -76 -60 0 c-53 0 -60 2 -60 20 0 13 -7 20 -20 20 -11
0 -20 5 -20 10 0 6 16 10 36 10 19 0 42 6 50 14 8 8 14 31 14 50 0 33 -2 36
-29 36 -20 0 -30 -6 -34 -20 -3 -11 -12 -20 -21 -20 -9 0 -16 -8 -16 -20 0
-13 -7 -20 -20 -20 -13 0 -20 -7 -20 -20 0 -17 -7 -20 -40 -20 -42 0 -46 -7
-41 -62 2 -12 -5 -18 -18 -18 -14 0 -21 -6 -21 -20 0 -16 -7 -20 -35 -20 -19
0 -35 -4 -35 -9 0 -5 -9 -11 -20 -14 -14 -4 -20 0 -21 11 0 10 -6 1 -14 -18
-12 -32 -11 -36 8 -51 18 -14 20 -26 18 -85 -1 -38 -7 -70 -12 -72 -5 -2 -9
-12 -9 -23 0 -25 -47 -26 -66 -1 -12 15 -13 15 -14 -10 0 -15 4 -30 10 -33 13
-8 13 -25 0 -25 -5 0 -10 7 -10 15 0 8 -4 15 -9 15 -14 0 -24 -57 -24 -133 1
-63 -1 -68 -18 -64 -11 3 -17 1 -13 -4 3 -5 1 -9 -4 -9 -9 0 -32 -88 -32 -126
0 -20 5 -24 29 -24 16 0 31 6 34 14 8 19 -7 72 -18 68 -14 -5 -16 11 -5 28 7
12 12 12 22 2 6 -6 27 -12 45 -12 l33 0 0 -100 c0 -93 1 -100 20 -100 17 0 20
-7 20 -40 l0 -40 -40 0 c-39 0 -40 -1 -40 -34 0 -19 -5 -38 -10 -41 -6 -3 -10
3 -10 14 0 12 -4 21 -10 21 -5 0 -10 -9 -10 -20 0 -11 -4 -20 -10 -20 -5 0
-10 9 -10 20 0 11 5 20 10 20 6 0 10 33 10 80 l0 80 -35 0 c-29 0 -35 4 -36
23 -1 12 -5 4 -9 -18 -5 -22 -6 -48 -3 -59 3 -12 1 -16 -6 -12 -7 5 -11 -9
-11 -43 0 -50 1 -51 30 -51 28 0 30 -2 30 -40 0 -29 -4 -40 -15 -40 -9 0 -15
-9 -15 -25 0 -17 -4 -23 -14 -19 -24 9 -26 43 -4 64 21 19 21 20 2 26 -10 4
-22 12 -25 16 -9 13 -20 -78 -12 -98 3 -9 1 -19 -5 -23 -17 -10 -48 -365 -35
-412 9 -36 2 -56 -10 -26 -3 6 -6 -3 -6 -21 -1 -20 3 -31 9 -27 5 3 10 1 10
-4 0 -6 -5 -11 -10 -11 -23 0 -6 -481 25 -735 66 -529 238 -1084 496 -1605
359 -723 945 -1369 1674 -1845 444 -291 906 -491 1425 -619 404 -100 738 -140
1165 -140 756 1 1420 152 2080 474 253 124 565 310 708 422 32 26 40 28 54 17
10 -8 61 -50 114 -94 541 -450 1214 -725 1943 -796 160 -15 633 -6 786 15
1048 148 1948 711 2518 1573 260 394 450 870 527 1323 52 300 49 153 52 2493
l4 2177 1218 0 c1186 0 1220 -1 1296 -20 248 -63 440 -250 500 -485 19 -76 19
-224 0 -300 -46 -181 -173 -342 -335 -423 -147 -73 -120 -72 -1082 -72 l-858
0 0 -840 0 -839 1223 -4 c1207 -3 1223 -3 1308 -24 433 -107 771 -369 961
-747 102 -203 148 -396 148 -621 0 -219 -42 -399 -139 -600 -196 -404 -554
-683 -1009 -787 -97 -22 -101 -22 -1294 -25 l-1198 -4 0 -840 0 -840 1258 4
c1100 3 1272 6 1380 20 364 49 630 132 977 302 272 134 485 279 712 484 248
224 507 552 646 818 17 35 35 63 40 63 4 0 7 -380 7 -845 l0 -845 855 0 855 0
2 3728 3 3727 713 3 712 2 0 -3730 0 -3730 860 0 860 0 0 3730 0 3730 1125 0
1125 0 0 845 0 845 -3555 0 -3555 0 -2 -2327 -3 -2326 -83 139 c-155 261 -290
430 -534 669 -169 167 -340 303 -513 410 -53 33 -101 63 -106 66 -6 3 6 41 24
85 77 181 141 410 174 624 24 160 24 492 -1 650 -76 489 -285 914 -624 1271
-368 387 -789 613 -1327 712 l-120 22 -2182 3 -2183 2 0 -2937 c0 -2534 -2
-2952 -15 -3042 -101 -710 -593 -1303 -1265 -1525 -520 -172 -1104 -94 -1562
207 -108 71 -214 156 -211 171 1 6 -25 31 -58 55 -204 148 -432 520 -524 856
-67 245 -65 202 -65 1659 l0 1316 -855 0 -856 0 4 -1377 c4 -1468 2 -1423 53
-1718 22 -133 79 -357 125 -496 l41 -124 -29 -23 c-147 -122 -535 -336 -760
-420 -785 -292 -1642 -258 -2398 94 -519 241 -1006 674 -1311 1166 -647 1044
-622 2370 63 3367 51 74 62 96 51 103 -10 8 -9 9 3 5 12 -4 36 19 85 81 93
119 367 392 491 490 193 153 468 320 658 401 44 19 98 42 120 52 22 10 94 36
160 58 677 224 1417 211 2082 -34 120 -45 391 -175 493 -238 l75 -46 3 937 c2
742 0 937 -10 944 -52 33 -576 184 -610 175 -9 -3 -18 -1 -20 4 -7 22 -410 88
-661 108 -158 13 -337 14 -337 2 0 -5 8 -12 18 -14 9 -3 -17 -5 -58 -5 -41 0
-67 2 -57 5 9 2 17 9 17 14 0 14 -157 11 -163 -3 -4 -10 -6 -10 -6 0 -1 7 -15
12 -37 12 -19 0 -33 -4 -30 -8z m56 -22 c0 -5 -4 -10 -10 -10 -5 0 -10 -6 -10
-12 0 -12 -33 -13 -225 -8 -5 0 1 7 14 16 18 13 40 15 107 12 47 -2 87 -1 90
4 7 11 34 10 34 -2z m490 -22 c0 -5 -7 -8 -15 -8 -8 0 -15 2 -15 4 0 2 -3 12
-6 21 -6 15 -4 15 15 4 11 -8 21 -17 21 -21z m-469 -11 c-13 -13 -26 -3 -16
12 3 6 11 8 17 5 6 -4 6 -10 -1 -17z m294 -17 c20 -7 26 -16 23 -33 -2 -18
-10 -23 -40 -25 -34 -3 -38 -1 -38 20 0 13 5 29 12 36 14 14 11 14 43 2z
m-217 -32 c3 -27 1 -28 -37 -28 -39 0 -41 1 -41 31 0 29 2 30 38 27 32 -3 37
-7 40 -30z m-771 -30 c-3 -8 -6 -5 -6 6 -1 11 2 17 5 13 3 -3 4 -12 1 -19z
m-347 -48 c0 -5 -4 -10 -10 -10 -5 0 -10 5 -10 10 0 6 5 10 10 10 6 0 10 -4
10 -10z m320 -40 c0 -5 18 -10 40 -10 38 0 40 -2 40 -30 l0 -30 -60 0 -60 0 0
40 c0 33 3 40 20 40 11 0 20 -4 20 -10z m-477 -87 c-13 -2 -33 -2 -45 0 -13 2
-3 4 22 4 25 0 35 -2 23 -4z m837 -93 c0 -5 -5 -10 -11 -10 -5 0 -7 5 -4 10 3
6 8 10 11 10 2 0 4 -4 4 -10z m-640 -640 c0 -5 -5 -10 -11 -10 -5 0 -7 5 -4
10 3 6 8 10 11 10 2 0 4 -4 4 -10z m-160 -160 c0 -5 -5 -10 -11 -10 -5 0 -7 5
-4 10 3 6 8 10 11 10 2 0 4 -4 4 -10z m-1080 -260 l0 -110 -110 0 -110 0 0 30
c0 27 3 30 30 30 17 0 30 5 30 10 0 6 9 10 20 10 13 0 20 7 20 20 0 13 7 20
20 20 13 0 20 7 20 20 0 11 5 20 10 20 6 0 10 14 10 30 0 27 3 30 30 30 l30 0
0 -110z m-280 -160 c0 -5 -4 -10 -10 -10 -5 0 -10 5 -10 10 0 6 5 10 10 10 6
0 10 -4 10 -10z m40 -10 c0 -17 7 -20 40 -20 22 0 40 -4 40 -10 0 -5 9 -10 20
-10 16 0 20 -7 20 -30 0 -28 -2 -30 -40 -30 -33 0 -40 -3 -40 -20 0 -11 -4
-20 -10 -20 -5 0 -10 9 -10 20 0 11 -4 20 -10 20 -5 0 -10 18 -10 40 0 22 -4
40 -10 40 -5 0 -10 9 -10 20 0 11 5 20 10 20 6 0 10 -9 10 -20z m-200 -150 c0
-5 -4 -10 -10 -10 -5 0 -10 5 -10 10 0 6 5 10 10 10 6 0 10 -4 10 -10z m40
-10 c0 -17 7 -20 40 -20 22 0 40 -4 40 -10 0 -5 9 -10 20 -10 16 0 20 -7 20
-30 0 -28 -2 -30 -40 -30 -33 0 -40 -3 -40 -20 0 -11 -4 -20 -10 -20 -5 0 -10
9 -10 20 0 11 -4 20 -10 20 -5 0 -10 18 -10 40 0 22 -4 40 -10 40 -5 0 -10 9
-10 20 0 11 5 20 10 20 6 0 10 -9 10 -20z m-200 -150 c0 -5 -4 -10 -10 -10 -5
0 -10 5 -10 10 0 6 5 10 10 10 6 0 10 -4 10 -10z m40 -10 c0 -17 7 -20 40 -20
22 0 40 -4 40 -10 0 -5 9 -10 20 -10 16 0 20 -7 20 -30 0 -28 -2 -30 -40 -30
-33 0 -40 -3 -40 -20 0 -11 -4 -20 -10 -20 -5 0 -10 9 -10 20 0 11 -4 20 -10
20 -5 0 -10 18 -10 40 0 22 -4 40 -10 40 -5 0 -10 9 -10 20 0 11 5 20 10 20 6
0 10 -9 10 -20z m-200 -150 c0 -5 -4 -10 -10 -10 -5 0 -10 5 -10 10 0 6 5 10
10 10 6 0 10 -4 10 -10z m40 -10 c0 -17 7 -20 40 -20 22 0 40 -4 40 -10 0 -5
9 -10 20 -10 16 0 20 -7 20 -30 0 -28 -2 -30 -40 -30 -33 0 -40 -3 -40 -20 0
-11 -4 -20 -10 -20 -5 0 -10 9 -10 20 0 11 -4 20 -10 20 -5 0 -10 18 -10 40 0
22 -4 40 -10 40 -5 0 -10 9 -10 20 0 11 5 20 10 20 6 0 10 -9 10 -20z m-200
-150 c0 -5 -4 -10 -10 -10 -5 0 -10 5 -10 10 0 6 5 10 10 10 6 0 10 -4 10 -10z
m40 -10 c0 -17 7 -20 40 -20 22 0 40 -4 40 -10 0 -5 9 -10 20 -10 16 0 20 -7
20 -30 0 -23 -4 -30 -20 -30 -19 0 -20 -7 -20 -180 l0 -180 -40 0 c-33 0 -40
-3 -40 -20 0 -13 -7 -20 -20 -20 -17 0 -20 -7 -20 -40 0 -33 -3 -40 -20 -40
-13 0 -20 -7 -20 -20 0 -16 -7 -20 -30 -20 -23 0 -30 4 -30 20 0 11 -4 20 -10
20 -5 0 -10 18 -10 40 0 22 -4 40 -10 40 -5 0 -10 9 -10 20 0 11 5 20 10 20 6
0 10 -9 10 -20 0 -17 7 -20 40 -20 22 0 40 5 40 10 0 6 9 10 20 10 11 0 20 5
20 10 0 6 -9 10 -20 10 -17 0 -20 7 -20 40 0 33 -3 40 -20 40 -13 0 -20 -7
-20 -20 0 -11 -4 -20 -10 -20 -5 0 -10 14 -10 30 0 27 3 30 30 30 17 0 30 5
30 10 0 6 9 10 20 10 13 0 20 7 20 20 0 13 7 20 20 20 13 0 20 7 20 20 0 11 5
20 10 20 6 0 10 18 10 40 0 22 -4 40 -10 40 -5 0 -10 9 -10 20 0 11 -4 20 -10
20 -5 0 -10 9 -10 20 0 11 5 20 10 20 6 0 10 18 10 40 0 22 -4 40 -10 40 -5 0
-10 9 -10 20 0 11 5 20 10 20 6 0 10 -9 10 -20z m840 -50 c0 -5 -5 -10 -11
-10 -5 0 -7 5 -4 10 3 6 8 10 11 10 2 0 4 -4 4 -10z m-160 -160 c0 -5 -5 -10
-11 -10 -5 0 -7 5 -4 10 3 6 8 10 11 10 2 0 4 -4 4 -10z m460 -54 c0 -3 -4 -8
-10 -11 -5 -3 -10 -1 -10 4 0 6 5 11 10 11 6 0 10 -2 10 -4z m-80 -80 c0 -3
-4 -8 -10 -11 -5 -3 -10 -1 -10 4 0 6 5 11 10 11 6 0 10 -2 10 -4z m-540 -26
c0 -5 -5 -10 -11 -10 -5 0 -7 5 -4 10 3 6 8 10 11 10 2 0 4 -4 4 -10z m-720
-100 c0 -5 -4 -10 -10 -10 -5 0 -10 5 -10 10 0 6 5 10 10 10 6 0 10 -4 10 -10z
m-80 -80 c0 -16 -4 -30 -10 -30 -5 0 -10 14 -10 30 0 17 5 30 10 30 6 0 10
-13 10 -30z m640 20 c0 -5 -5 -10 -11 -10 -5 0 -7 5 -4 10 3 6 8 10 11 10 2 0
4 -4 4 -10z m-1040 -100 c0 -5 -4 -10 -10 -10 -5 0 -10 5 -10 10 0 6 5 10 10
10 6 0 10 -4 10 -10z m360 -80 c0 -27 -3 -30 -30 -30 -23 0 -30 4 -30 20 0 11
-4 20 -10 20 -5 0 -10 5 -10 10 0 6 18 10 40 10 38 0 40 -2 40 -30z m520 20
c0 -5 -5 -10 -11 -10 -5 0 -7 5 -4 10 3 6 8 10 11 10 2 0 4 -4 4 -10z"/>
<path d="M4960 10250 c-13 -8 -13 -10 2 -10 9 0 20 5 23 10 8 13 -5 13 -25 0z"/>
<path d="M4806 10232 c-3 -5 1 -9 9 -9 8 0 15 4 15 9 0 4 -4 8 -9 8 -6 0 -12
-4 -15 -8z"/>
<path d="M3897 10011 c-17 -6 -17 -9 -4 -19 12 -10 16 -9 20 8 3 11 4 20 4 19
-1 0 -10 -4 -20 -8z"/>
<path d="M9728 8530 c-3 -1339 -2 -1430 14 -1430 13 0 18 11 20 48 3 43 5 47
31 50 34 4 36 22 2 22 -32 0 -37 29 -33 180 l3 115 78 3 77 3 0 49 c0 43 -3
50 -20 50 -13 0 -20 -7 -20 -20 0 -13 -7 -20 -20 -20 -13 0 -20 -7 -20 -20 0
-16 -7 -20 -35 -20 -31 0 -35 3 -40 33 -4 18 -5 49 -3 68 2 29 7 34 31 37 34
4 36 22 2 22 -32 0 -37 29 -33 180 l3 115 78 3 77 3 0 49 c0 43 -3 50 -20 50
-13 0 -20 -7 -20 -20 0 -13 -7 -20 -20 -20 -13 0 -20 -7 -20 -20 0 -16 -7 -20
-35 -20 -31 0 -35 3 -40 33 -4 18 -5 49 -3 68 2 29 7 34 31 37 34 4 36 22 2
22 -32 0 -37 29 -33 180 l3 115 78 3 77 3 0 49 c0 43 -3 50 -20 50 -13 0 -20
-7 -20 -20 0 -13 -7 -20 -20 -20 -13 0 -20 -7 -20 -20 0 -16 -7 -20 -35 -20
-31 0 -35 3 -40 33 -4 18 -5 49 -3 68 2 29 7 34 31 37 34 4 36 22 2 22 -32 0
-37 29 -33 180 l3 115 78 3 77 3 0 49 c0 43 -3 50 -20 50 -13 0 -20 -7 -20
-20 0 -13 -7 -20 -20 -20 -13 0 -20 -7 -20 -20 0 -16 -7 -20 -35 -20 -31 0
-35 3 -40 33 -4 18 -5 49 -3 68 2 29 7 34 31 37 34 4 36 22 2 22 -32 0 -37 29
-33 180 l3 115 28 3 c33 4 36 22 3 22 -21 0 -24 6 -30 53 -3 28 -6 141 -6 250
0 168 -2 197 -15 197 -13 0 -15 -170 -17 -1430z"/>
<path d="M9840 9940 c0 -17 7 -20 40 -20 33 0 40 3 40 20 0 17 -7 20 -40 20
-33 0 -40 -3 -40 -20z"/>
<path d="M11360 8530 c0 -1355 1 -1430 18 -1430 16 0 17 74 14 1430 -2 1260
-4 1430 -17 1430 -13 0 -15 -168 -15 -1430z"/>
<path d="M10200 9860 c0 -33 3 -40 20 -40 13 0 20 -7 20 -20 0 -16 7 -20 30
-20 23 0 30 4 30 20 0 11 5 20 10 20 6 0 10 9 10 20 0 11 -4 20 -10 20 -5 0
-10 9 -10 20 0 17 -7 20 -50 20 l-50 0 0 -40z"/>
<path d="M10760 9880 c0 -13 -7 -20 -20 -20 -13 0 -20 -7 -20 -20 0 -13 7 -20
20 -20 13 0 20 -7 20 -20 0 -11 5 -20 10 -20 6 0 10 9 10 20 0 11 5 20 10 20
6 0 10 9 10 20 0 11 -4 20 -10 20 -5 0 -10 9 -10 20 0 11 -4 20 -10 20 -5 0
-10 -9 -10 -20z"/>
<path d="M11240 9880 c0 -13 -7 -20 -20 -20 -13 0 -20 -7 -20 -20 0 -13 7 -20
20 -20 13 0 20 -7 20 -20 0 -11 5 -20 10 -20 6 0 10 9 10 20 0 11 5 20 10 20
6 0 10 9 10 20 0 11 -4 20 -10 20 -5 0 -10 9 -10 20 0 11 -4 20 -10 20 -5 0
-10 -9 -10 -20z"/>
<path d="M9960 9800 c0 -17 -7 -20 -40 -20 -22 0 -40 -4 -40 -10 0 -5 23 -10
50 -10 49 0 50 1 50 30 0 17 -4 30 -10 30 -5 0 -10 -9 -10 -20z"/>
<path d="M3401 9797 c-7 -10 -22 -17 -33 -17 -11 0 -18 -5 -15 -12 2 -7 14
-12 25 -10 15 2 22 -2 22 -12 0 -21 13 -20 33 2 21 23 21 32 3 32 -8 0 -16 7
-18 17 -3 15 -4 15 -17 0z"/>
<path d="M3240 9715 c-7 -8 -19 -15 -26 -15 -8 0 -14 -7 -14 -16 0 -11 6 -14
20 -9 14 5 20 2 20 -9 0 -20 16 -21 27 -2 4 7 15 16 23 19 11 4 9 7 -8 13 -14
4 -21 12 -18 20 7 19 -8 18 -24 -1z"/>
<path d="M3090 9610 c-13 -8 -12 -13 6 -31 l21 -21 6 21 c6 25 -13 43 -33 31z"/>
<path d="M2915 9530 c-3 -5 -1 -10 4 -10 6 0 11 5 11 10 0 6 -2 10 -4 10 -3 0
-8 -4 -11 -10z"/>
<path d="M2850 9485 c-7 -9 -8 -15 -2 -15 5 0 12 7 16 15 3 8 4 15 2 15 -2 0
-9 -7 -16 -15z"/>
<path d="M2800 9450 c0 -5 7 -10 15 -10 8 0 15 5 15 10 0 6 -7 10 -15 10 -8 0
-15 -4 -15 -10z"/>
<path d="M2850 9445 c-18 -22 -5 -30 19 -13 12 8 18 18 14 21 -10 11 -19 8
-33 -8z"/>
<path d="M2736 9407 c-28 -21 -14 -67 20 -67 23 0 25 3 22 37 -3 41 -15 50
-42 30z"/>
<path d="M2627 9323 c-4 -3 -7 -11 -7 -17 0 -6 5 -5 12 2 6 6 9 14 7 17 -3 3
-9 2 -12 -2z"/>
<path d="M2585 9300 c-3 -5 1 -10 9 -10 9 0 16 5 16 10 0 6 -4 10 -9 10 -6 0
-13 -4 -16 -10z"/>
<path d="M9880 9260 c0 -33 3 -40 20 -40 17 0 20 7 20 40 0 33 -3 40 -20 40
-17 0 -20 -7 -20 -40z"/>
<path d="M2575 9270 c-3 -5 -2 -10 4 -10 5 0 13 5 16 10 3 6 2 10 -4 10 -5 0
-13 -4 -16 -10z"/>
<path d="M2428 9149 c-24 -25 -23 -29 7 -29 20 0 25 5 25 25 0 29 -8 30 -32 4z"/>
<path d="M2600 9130 c0 -5 5 -10 10 -10 6 0 10 5 10 10 0 6 -4 10 -10 10 -5 0
-10 -4 -10 -10z"/>
<path d="M2293 9013 c-41 -4 -43 -6 -43 -36 0 -18 -3 -42 -6 -54 -6 -20 -3
-23 25 -23 22 0 31 5 31 16 0 20 24 44 44 44 11 0 16 9 16 30 0 18 -5 29 -12
28 -7 -1 -32 -3 -55 -5z"/>
<path d="M2083 8778 l-3 -78 30 0 c28 0 30 3 30 38 0 26 6 42 20 52 11 8 20
26 20 40 0 23 -3 25 -47 25 l-48 0 -2 -77z"/>
<path d="M9880 8780 c0 -33 3 -40 20 -40 17 0 20 7 20 40 0 33 -3 40 -20 40
-17 0 -20 -7 -20 -40z"/>
<path d="M2680 8650 c0 -5 5 -10 10 -10 6 0 10 5 10 10 0 6 -4 10 -10 10 -5 0
-10 -4 -10 -10z"/>
<path d="M1800 8480 c0 -11 -7 -20 -15 -20 -8 0 -15 -6 -15 -14 0 -8 -2 -20
-3 -28 -2 -7 -2 -10 0 -5 3 4 20 7 39 7 25 0 34 4 34 16 0 9 10 25 22 35 11
11 18 22 15 26 -4 3 -15 -4 -26 -15 -23 -27 -31 -28 -31 -2 0 11 -4 20 -10 20
-5 0 -10 -9 -10 -20z"/>
<path d="M2520 8490 c0 -5 5 -10 10 -10 6 0 10 5 10 10 0 6 -4 10 -10 10 -5 0
-10 -4 -10 -10z"/>
<path d="M1690 8351 c0 -12 -5 -31 -10 -42 -13 -24 -9 -24 18 0 26 22 27 34 7
51 -13 10 -15 9 -15 -9z"/>
<path d="M1880 8330 c0 -5 9 -10 20 -10 11 0 20 5 20 10 0 6 -9 10 -20 10 -11
0 -20 -4 -20 -10z"/>
<path d="M9880 8300 c0 -33 3 -40 20 -40 17 0 20 7 20 40 0 33 -3 40 -20 40
-17 0 -20 -7 -20 -40z"/>
<path d="M1573 8248 c-22 -29 -23 -36 -3 -31 11 3 20 14 20 24 0 22 -4 24 -17
7z"/>
<path d="M1400 7976 c0 -9 5 -16 10 -16 6 0 10 4 10 9 0 6 -4 13 -10 16 -5 3
-10 -1 -10 -9z"/>
<path d="M1365 7930 c-3 -5 -1 -10 4 -10 6 0 11 5 11 10 0 6 -2 10 -4 10 -3 0
-8 -4 -11 -10z"/>
<path d="M1420 7930 c0 -5 7 -10 16 -10 8 0 12 5 9 10 -3 6 -10 10 -16 10 -5
0 -9 -4 -9 -10z"/>
<path d="M1325 7861 c-3 -5 -1 -12 5 -16 5 -3 10 1 10 9 0 18 -6 21 -15 7z"/>
<path d="M9880 7820 c0 -33 3 -40 20 -40 17 0 20 7 20 40 0 33 -3 40 -20 40
-17 0 -20 -7 -20 -40z"/>
<path d="M1266 7755 c-3 -8 -1 -15 4 -15 6 0 10 7 10 15 0 8 -2 15 -4 15 -2 0
-6 -7 -10 -15z"/>
<path d="M1221 7664 l-21 -44 39 0 c36 0 39 2 37 27 0 16 -8 35 -17 44 -15 15
-18 13 -38 -27z m39 -14 c0 -5 -4 -10 -10 -10 -5 0 -10 5 -10 10 0 6 5 10 10
10 6 0 10 -4 10 -10z"/>
<path d="M1156 7535 c-11 -30 -6 -40 11 -22 12 12 14 20 6 28 -7 7 -12 6 -17
-6z"/>
<path d="M1087 7382 c-15 -37 -9 -61 13 -47 6 4 8 15 5 26 -4 11 -2 19 4 19
13 0 15 27 2 34 -5 3 -16 -11 -24 -32z"/>
<path d="M9880 7340 c0 -33 3 -40 20 -40 17 0 20 7 20 40 0 33 -3 40 -20 40
-17 0 -20 -7 -20 -40z"/>
<path d="M9880 7125 c0 -8 9 -15 20 -15 11 0 20 7 20 15 0 8 -9 15 -20 15 -11
0 -20 -7 -20 -15z"/>
<path d="M957 7046 c-4 -10 -5 -21 -2 -24 9 -9 17 6 13 25 -3 17 -4 17 -11 -1z"/>
<path d="M965 6960 c-3 -5 -1 -10 4 -10 6 0 11 5 11 10 0 6 -2 10 -4 10 -3 0
-8 -4 -11 -10z"/>
</g>
</svg>
